<svg version="1.1" xmlns="http://www.standards.example.test/2000/svg" style="display: block;" viewBox="430 430 1220 1220" width="512" height="512" preserveAspectRatio="xMidYMid meet">
<defs>
	<linearGradient id="Gradient1" gradientUnits="userSpaceOnUse" x1="587.464" y1="1448.76" x2="1018.04" y2="1016.48">
		<stop class="stop0" offset="0" stop-opacity="1" stop-color="rgb(206,165,80)"/>
		<stop class="stop1" offset="1" stop-opacity="1" stop-color="rgb(235,196,111)"/>
	</linearGradient>
	<linearGradient id="Gradient2" gradientUnits="userSpaceOnUse" x1="1061.91" y1="1066.66" x2="1473.2" y2="577.419">
		<stop class="stop0" offset="0" stop-opacity="1" stop-color="rgb(217,176,91)"/>
		<stop class="stop1" offset="1" stop-opacity="1" stop-color="rgb(248,211,123)"/>
	</linearGradient>
</defs>
<path transform="translate(0,0)" fill="url(#Gradient2)" d="M 1249.15 460.567 C 1253.25 460.169 1257.37 459.975 1261.49 459.986 C 1317.45 459.836 1370.53 482.888 1409.68 522.627 C 1448.96 562.493 1487.78 602.83 1527.01 642.743 C 1544.3 660.333 1557.46 673.841 1569.88 695.466 C 1586 723.247 1594.42 754.83 1594.25 786.951 C 1594.33 809.748 1593.57 832.567 1593.06 856.358 C 1592.08 903.097 1595.3 955.101 1560.81 992.241 C 1557.03 996.316 1549.04 998.869 1544.9 995.622 C 1529.41 983.467 1511.67 964.949 1497.79 951.337 L 1369.57 825.274 C 1352.51 808.409 1335.21 791.393 1318.2 774.494 C 1293.48 749.923 1270.19 738.007 1235.25 737.766 C 1184.29 738.275 1156.37 774.857 1123.76 808.03 C 1094.8 837.093 1066.09 866.406 1037.64 895.965 C 987.143 893.818 949.298 908.453 916.803 948.032 L 883.402 915.163 C 862.616 894.649 842.826 878.533 839.569 847.509 C 837.723 828.983 844.514 807.113 857.126 793.127 C 873.378 775.106 891.099 757.284 908.044 739.721 L 1003.14 641.234 L 1077.81 563.851 C 1131.57 507.669 1164.87 467.809 1249.15 460.567 z"/>
<path transform="translate(0,0)" fill="rgb(244,182,38)" d="M 882.865 460.5 C 932.108 455.123 988.281 473.983 1025.14 506.495 C 1027.75 509.297 1030.63 511.905 1027.93 515.642 C 1015.52 532.81 997.092 549.822 982.375 564.959 L 864.399 686.125 L 826.102 725.506 C 809.652 742.404 798.606 751.866 786.335 772.287 C 773.973 793.266 767.557 817.216 767.776 841.566 C 768.422 897.975 797.941 924.695 834.449 960.615 L 889.739 1014.93 C 883.973 1065.27 899.83 1099.93 934.547 1135.18 C 921.407 1148.28 908.364 1161.47 895.419 1174.76 C 871.044 1199.52 857.677 1215.74 821.372 1219.17 C 781.111 1218.36 763.924 1196.49 737.735 1170.17 L 686.832 1119.07 L 604.095 1036.44 C 591.108 1023.46 577.998 1010.52 565.16 997.424 C 530.609 962.183 510.475 917.609 506.716 868.473 C 502.376 811.756 521.759 754.983 558.563 711.764 C 567.941 700.751 579.437 689.958 589.578 679.509 C 613.189 655.239 637.052 631.216 661.164 607.444 L 716.758 552.46 C 738.875 530.551 759.255 508.496 785.983 491.896 C 815.274 473.774 848.512 463.003 882.865 460.5 z"/>
<path transform="translate(0,0)" fill="rgb(244,182,38)" d="M 1214.37 847.347 C 1251.44 842.466 1275.17 869.691 1298.58 893.024 L 1346.59 940.668 L 1447.24 1040.78 C 1468.67 1062.16 1496.51 1087.02 1513.28 1111.21 C 1560.46 1179.27 1554.18 1271.23 1505.09 1336.5 C 1491.82 1354.15 1476.88 1368.25 1461.21 1383.81 L 1407.42 1437.1 L 1342.64 1501.36 C 1293.25 1550.35 1262.89 1581.6 1189.92 1592.71 C 1153.61 1596.76 1122.53 1593.94 1087.82 1581.14 C 1074.37 1576.18 1035.6 1556.97 1029.93 1544.22 C 1030.06 1540.63 1033.32 1536.1 1035.74 1533.63 C 1105 1462.84 1174.87 1392.78 1243.96 1321.8 C 1268.94 1296.13 1283.52 1261.95 1282.7 1226.09 C 1281.44 1171.22 1247.32 1138.69 1210.39 1103.74 C 1193.09 1086.96 1176.41 1069.22 1158.58 1052.71 C 1163.96 1000.46 1148.45 961.812 1110.34 926.077 C 1120.71 914.846 1132.15 903.375 1142.88 892.488 C 1166.87 868.143 1179.15 851.721 1214.37 847.347 z"/>
<path transform="translate(0,0)" fill="url(#Gradient1)" d="M 525.592 1095.07 C 531.052 1094.55 534.827 1094.6 539.134 1098.61 C 555.747 1114.06 571.299 1130.9 587.236 1147.12 L 693.062 1254.82 C 727.446 1289.89 753.967 1325.13 807.765 1325.57 C 861.751 1326.01 891.488 1285.38 926.389 1250.38 L 1007.94 1168.76 C 1011.72 1168.88 1015.49 1168.96 1019.27 1168.99 C 1066.31 1169.46 1094.22 1154.56 1126.87 1122.51 C 1127.83 1123.36 1129.47 1124.71 1130.33 1125.66 C 1156.45 1154.84 1197.62 1180.65 1197.13 1224.22 C 1196.73 1259.86 1174.45 1278.92 1151.88 1301.53 L 1116.64 1336.81 L 986.729 1466.9 C 963.318 1490.41 926.97 1529.93 901.257 1547.44 C 860.425 1575.54 810.052 1586.15 761.353 1576.91 C 734.82 1571.71 709.632 1561.14 687.339 1545.84 C 654.319 1523.07 624.484 1486.15 595.653 1457.63 C 543.934 1406.47 488.751 1354.3 486.246 1276.03 C 485.069 1239.23 485.296 1198.95 490.88 1162.6 C 494.132 1142.04 507.292 1107.16 525.592 1095.07 z"/>
<path transform="translate(0,0)" fill="rgb(244,182,38)" d="M 1016.47 917.73 C 1079.43 913.595 1133.89 961.135 1138.29 1024.08 C 1142.69 1087.02 1095.38 1141.67 1032.46 1146.34 C 969.161 1151.04 914.106 1103.38 909.679 1040.06 C 905.251 976.744 953.139 921.891 1016.47 917.73 z M 1035.47 1131.61 C 1090.49 1125.25 1129.93 1075.47 1123.52 1020.45 C 1117.11 965.435 1067.29 926.047 1012.28 932.505 C 957.342 938.955 918.016 988.695 924.415 1043.64 C 930.814 1098.59 980.519 1137.96 1035.47 1131.61 z"/>
</svg>
