<svg version="1.1" xmlns="http://www.standards.example.test/2000/svg" viewBox="455 455 1170 1170" width="512" height="512" preserveAspectRatio="xMidYMid meet">
<path transform="translate(0,0)" fill="#F5B427" d="M 565.246 860.455 C 686.917 788.133 808.639 708.256 934.42 642.843 L 872.188 878.636 L 847.684 969.38 C 843.909 983.459 837.131 1006.81 834.696 1020.64 C 891.024 1075.87 946.902 1131.55 1002.32 1187.69 C 1003.17 1188.23 1006.88 1191.5 1007.87 1192.34 C 992.055 1193.02 976.157 1193.16 960.331 1192.94 C 858.273 1191.52 757.111 1196.1 655.224 1203.14 C 646.816 1138.01 635.449 1072.62 626.926 1007.45 C 623.951 984.7 619.973 961.406 617.578 938.639 C 615.96 934.874 614.215 904.27 613.885 898.104 C 597.886 885.811 580.866 873.11 565.246 860.455 z" />
<path transform="translate(0,0)" fill="#F5B427" d="M 613.885 898.104 C 684.51 951.128 754.827 1004.56 824.831 1058.4 C 827.965 1045.37 830.943 1033.5 834.696 1020.64 C 891.024 1075.87 946.902 1131.55 1002.32 1187.69 C 1003.17 1188.23 1006.88 1191.5 1007.87 1192.34 C 992.055 1193.02 976.157 1193.16 960.331 1192.94 C 858.273 1191.52 757.111 1196.1 655.224 1203.14 C 646.816 1138.01 635.449 1072.62 626.926 1007.45 C 623.951 984.7 619.973 961.406 617.578 938.639 C 615.96 934.874 614.215 904.27 613.885 898.104 z" />
<path transform="translate(0,0)" fill="#B1780A" d="M 613.885 898.104 C 684.51 951.128 754.827 1004.56 824.831 1058.4 C 827.965 1045.37 830.943 1033.5 834.696 1020.64 C 891.024 1075.87 946.902 1131.55 1002.32 1187.69 C 993.308 1188.13 963.555 1163.32 951.695 1156.74 C 943.589 1155.76 918.9 1137.86 910.946 1132.93 C 847.096 1094.19 784.418 1053.54 722.996 1011.04 C 700.687 995.588 678.834 979.556 656.329 964.423 C 644.752 956.638 630.954 944.212 618.889 937.481 L 617.578 938.639 C 615.96 934.874 614.215 904.27 613.885 898.104 z" />
<path transform="translate(0,0)" fill="#F9C55C" d="M 834.696 1020.64 C 891.024 1075.87 946.902 1131.55 1002.32 1187.69 C 993.308 1188.13 963.555 1163.32 951.695 1156.74 C 911.544 1123.94 866.135 1090.23 824.831 1058.4 C 827.965 1045.37 830.943 1033.5 834.696 1020.64 z" />
<path transform="translate(0,0)" fill="#F5B427" d="M 1212.14 910.116 C 1250.57 909.201 1288.96 907.396 1327.3 904.704 C 1348.99 903.11 1374.15 899.68 1394.89 898.634 C 1405.85 971.593 1417.9 1044.38 1431.04 1116.98 C 1436.44 1148.19 1442.45 1191.97 1449.32 1222 C 1462.72 1222.85 1476.11 1223.9 1489.48 1225.16 C 1479.26 1230.95 1464.34 1241.32 1454.01 1248 L 1385.87 1291.69 C 1329.13 1327.67 1271.95 1362.93 1214.34 1397.49 C 1180.75 1417.79 1142.85 1441.38 1108.72 1460.03 C 1143.72 1334.45 1182.61 1208.82 1216.91 1083 C 1219.69 1072.87 1222.27 1063.52 1225.57 1053.52 L 1105.82 954.086 C 1089.85 940.695 1062.97 919.108 1049.14 905.495 L 1050.61 904.099 C 1058 908.692 1197.44 912.78 1212.14 910.116 z" />
<path transform="translate(0,0)" fill="#F5B427" d="M 1216.91 1083 C 1227.18 1087.35 1254.41 1108.34 1265.19 1115.42 C 1326.5 1155.67 1386.67 1197.99 1448.31 1237.77 C 1449.79 1238.72 1449.22 1238.39 1451.3 1238.61 L 1450.91 1237.06 C 1450.87 1232.74 1449.87 1226.45 1449.32 1222 C 1462.72 1222.85 1476.11 1223.9 1489.48 1225.16 C 1479.26 1230.95 1464.34 1241.32 1454.01 1248 L 1385.87 1291.69 C 1329.13 1327.67 1271.95 1362.93 1214.34 1397.49 C 1180.75 1417.79 1142.85 1441.38 1108.72 1460.03 C 1143.72 1334.45 1182.61 1208.82 1216.91 1083 z" />
<path transform="translate(0,0)" fill="#B1780A" d="M 1225.57 1053.52 C 1271.41 1089.23 1316.81 1125.5 1361.75 1162.33 C 1390.14 1185.5 1423.98 1212.57 1450.91 1237.06 L 1451.3 1238.61 C 1449.22 1238.39 1449.79 1238.72 1448.31 1237.77 C 1386.67 1197.99 1326.5 1155.67 1265.19 1115.42 C 1254.41 1108.34 1227.18 1087.35 1216.91 1083 C 1219.69 1072.87 1222.27 1063.52 1225.57 1053.52 z" />
<path transform="translate(0,0)" fill="#F5B427" d="M 1206.41 1058.71 C 1203.93 1064.59 1202.2 1070.58 1200.31 1076.68 C 1192.99 1107 1183.28 1136.09 1175.23 1166.02 C 1141 1293.43 1092.59 1416.19 1049.71 1540.82 C 1044.44 1556.12 1038.65 1572.02 1032.77 1587.13 C 1029.37 1596.19 1025.51 1606.99 1023.19 1616.3 C 1017.93 1602.82 1012.86 1585.7 1008.41 1571.76 L 985.319 1499 C 961.017 1422.76 937.603 1346.25 915.081 1269.47 C 941.677 1249.16 971.543 1228.82 998.853 1208.77 C 1067.32 1157.76 1136.52 1107.74 1206.41 1058.71 z" />
<path transform="translate(0,0)" fill="#B1780A" d="M 1032.77 1587.13 C 1032.97 1572.16 1046.08 1530.44 1050.37 1514.35 C 1085.17 1384.6 1127.37 1256.95 1176.76 1132.03 C 1180.13 1123.27 1195.12 1081.45 1200.31 1076.68 C 1192.99 1107 1183.28 1136.09 1175.23 1166.02 C 1141 1293.43 1092.59 1416.19 1049.71 1540.82 C 1044.44 1556.12 1038.65 1572.02 1032.77 1587.13 z" />
<path transform="translate(0,0)" fill="#F5B427" d="M 1024.49 466.697 C 1029.45 471.489 1130.27 803.249 1138.66 831.865 C 1065.63 875.358 988.553 929.576 918.681 977.987 C 896.308 993.336 872.516 1009.62 850.868 1025.81 C 863.268 981.149 877.992 934.904 891.553 890.463 L 1024.49 466.697 z" />
<path transform="translate(0,0)" fill="#F9C55C" d="M 1114.19 643.006 C 1193.69 683.688 1273.76 730.534 1351.42 774.604 C 1399.6 801.946 1448.73 834.406 1496.8 860.987 C 1448.1 867.141 1396.15 871.965 1348.25 879.048 C 1302.86 890.313 1247.51 898.987 1200.55 909.255 C 1202.24 910.29 1209.33 910.039 1212.14 910.116 C 1197.44 912.78 1058 908.692 1050.61 904.099 L 1052.37 903.482 C 1090.64 882.595 1127.23 859.419 1164.79 838.86 C 1162.95 830.382 1160.68 821.559 1158.48 813.158 C 1143.68 756.558 1129.8 699.353 1114.19 643.006 z" />
<path transform="translate(0,0)" fill="#B1780A" d="M 1052.37 903.482 C 1056.22 904.286 1088.71 899.843 1094.75 899.351 L 1275.66 884.389 C 1288.92 883.288 1338.02 877.763 1348.25 879.048 C 1302.86 890.313 1247.51 898.987 1200.55 909.255 C 1202.24 910.29 1209.33 910.039 1212.14 910.116 C 1197.44 912.78 1058 908.692 1050.61 904.099 L 1052.37 903.482 z" />
<path transform="translate(0,0)" fill="#F9C55C" d="M 771.596 1214.15 C 780.054 1212.35 804.294 1209.9 813.617 1209.24 C 833.179 1207.84 861.52 1202.94 880.506 1203.11 C 911.573 1203.4 943.691 1205.78 975.114 1206.25 L 977.039 1206.71 C 971.352 1211.9 955.67 1220.38 948.554 1225.24 C 929.384 1238.35 909.656 1250.66 890.64 1264.03 C 902.054 1309.73 915.637 1355.06 928.099 1400.48 C 933.27 1419.33 939.799 1440.71 944.203 1459.58 C 863.794 1410.81 783.756 1361.42 704.096 1311.44 L 613.614 1254.33 C 599.245 1245.21 582.525 1233.93 568.069 1225.42 L 721.133 1217.79 C 736.593 1217 757.189 1214.36 771.596 1214.15 z" />
<path transform="translate(0,0)" fill="#B1780A" d="M 771.596 1214.15 C 780.054 1212.35 804.294 1209.9 813.617 1209.24 C 833.179 1207.84 861.52 1202.94 880.506 1203.11 C 911.573 1203.4 943.691 1205.78 975.114 1206.25 C 931.811 1209.03 886.321 1209.47 842.762 1212.28 C 829.879 1213.1 780.206 1215.52 771.596 1214.15 z" />
</svg>
